<?xml version="1.0" encoding="utf-8"?>
<!-- Generator: Adobe Illustrator 24.2.1, SVG Export Plug-In . SVG Version: 6.00 Build 0)  -->
<svg version="1.1" id="Capa_1" xmlns="http://www.w3.org/2000/svg" xmlns:xlink="http://www.w3.org/1999/xlink" x="0px" y="0px"
	 viewBox="0 0 541.27 541.27" style="enable-background:new 0 0 541.27 541.27;" xml:space="preserve">
<style type="text/css">
	.st0{fill:#FFFFFF;}
</style>
<circle class="st0" cx="270.64" cy="270.64" r="271"/>
<g id="dT6hx3_1_">
	<g>
		<path d="M321.05,409.63c-22.76,0.1-39.71-6.57-54.99-17.99c-13.83-10.34-25.2-23.07-35.43-36.83
			c-22.94-30.86-41.72-64.01-54.57-100.36c-4.67-13.23-7.75-26.82-8.25-40.93c-0.8-22.6,6.53-42.24,21.41-59.13
			c6.24-7.08,12.87-13.83,21.19-18.48c3.28-1.83,7.01-3.08,10.69-3.93c4.18-0.96,7.9,0.66,10.66,3.95c1.52,1.82,2.92,3.81,3.99,5.92
			c8.35,16.32,15.78,33.04,21.01,50.66c0.68,2.28,1.2,4.63,1.52,6.98c0.61,4.51-1.16,8.09-5.17,10.11c-3.6,1.81-7.42,3.2-11.24,4.51
			c-3.9,1.33-7.91,2.32-11.87,3.5c-7.4,2.21-10.48,6.82-9.07,14.42c1.8,9.72,5.21,18.98,9.16,28
			c11.43,26.08,25.71,50.42,44.52,71.92c2.85,3.26,5.9,6.4,9.16,9.27c6.04,5.32,11.64,5.06,17.53-0.49
			c3.69-3.48,7.25-7.1,11.05-10.46c2.32-2.05,4.83-3.95,7.48-5.54c3.86-2.33,7.8-2.01,11.34,0.83c1.97,1.58,3.84,3.31,5.57,5.15
			c12.35,13.13,22.88,27.67,32.72,42.72c0.99,1.51,1.85,3.12,2.58,4.77c2.59,5.79,1.73,10.55-2.66,15.14
			c-3.37,3.52-7.5,5.92-11.92,7.79C344.74,406.52,331.45,409.45,321.05,409.63z"/>
	</g>
</g>
</svg>
